# xmcd
#
# Track frame offsets:
#	150
#	7685
#	15750
#	19247
#	26157
#	32002
#	43840
#	49760
#	63380
#	81872
#
# Disc length: 1233 seconds
#
# Revision: 1
# Processed by: cddbd v1.5.1PL0 Copyright (c) Steve Scherf et al.
# Submitted via: CDex 1.50Beta5
#
DISCID=6c04cf0a
DTITLE=U.S.A - AMERICAN PRIDE(WORLD MUSIC3)
DYEAR=1900
DGENRE=
TTITLE0=わが国、それは汝のもの/My Country"Tis Of Thee
TTITLE1=麗しのアメリカ/America The Beautiful
TTITLE2=ヘイル・トゥー・ザ・チーフ/Hail To The Chief
TTITLE3=アメリカ合衆国 国歌/Star Spangled Banner
TTITLE4=マリンズ・ヒム/Marine’s Hymn
TTITLE5=リパブリック賛歌/Battle Hymn Of The Republic
TTITLE6=ケーソン・ソング/Caissons Song
TTITLE7=ディキシー/Dixie
TTITLE8=星条旗よ永遠なれ/Stars And Stripes Forever
TTITLE9=ジョニーが凱旋するとき/When Johnny Comes Marching Home
EXTD=
EXTT0=
EXTT1=
EXTT2=
EXTT3=
EXTT4=
EXTT5=
EXTT6=
EXTT7=
EXTT8=
EXTT9=
PLAYORDER=
